<svg xmlns="http://www.w3.org/2000/svg" xmlns:xlink="http://www.w3.org/1999/xlink" viewBox="0 0 700.7 175"><defs><style>.cls-1{fill:none;}.cls-2{fill:#3197d4;}.cls-3{clip-path:url(#clip-path);}.cls-4{fill:#3397d3;}</style><clipPath id="clip-path" transform="translate(-44 -64)"><path class="cls-1" d="M59,72H89.69q29.72,0,40.19,2.73t15.94,9a28.54,28.54,0,0,1,6.82,13.91q1.35,7.66,1.36,30.1v55.34q0,21.27-2,28.45a21.4,21.4,0,0,1-7,11.22,29,29,0,0,1-12.28,5.66q-7.3,1.61-22,1.61H59Zm41,27.14v104.1q8.9,0,11-3.57t2-19.4V118.79q0-10.76-.68-13.78a6.56,6.56,0,0,0-3.13-4.45C107.56,99.62,104.5,99.14,100,99.14Z"/></clipPath></defs><g id="Layer_1" data-name="Layer 1"><path class="cls-2" d="M205,151H168v-8.65q0-15,3.47-23.08t13.92-14.33q10.46-6.21,27.16-6.22,20,0,30.19,7T255,123.06Q257,133.32,257,165.28V230H218V218.46a25.65,25.65,0,0,1-9.4,10.41,26.16,26.16,0,0,1-13.74,3.47,33.84,33.84,0,0,1-19.15-5.8Q167,220.72,167,201.11V190.82q0-14.53,4.71-19.81t23.36-12.3q20-7.61,21.36-10.25t1.4-10.73q0-10.15-1.55-13.23a5.35,5.35,0,0,0-5.16-3.07c-2.75,0-4.45.86-5.12,2.58s-1,6.2-1,13.42Zm12,17.62q-9.47,6.93-11,11.61t-1.51,13.47q0,10.05,1.31,13t5.23,2.93q3.7,0,4.83-2.29T217,195.26Z" transform="translate(-44 -64)"/><path class="cls-2" d="M312,84v20h11v20H312v69.3c0,8.53.43,13.27,1.29,14.25S317.71,209,324,209v21H308q-13.52,0-19.29-1.12a20.53,20.53,0,0,1-10.19-5.18,17.1,17.1,0,0,1-5.48-9.27Q272,209.21,272,189.88V124h-8V104h8V84Z" transform="translate(-44 -64)"/><path class="cls-2" d="M366,151H329v-8.65q0-15,3.47-23.08t13.92-14.33q10.46-6.21,27.16-6.22,20,0,30.19,7T416,123.06Q418,133.32,418,165.28V230H380V218.46a25.65,25.65,0,0,1-9.4,10.41,26.16,26.16,0,0,1-13.74,3.47,33.84,33.84,0,0,1-19.15-5.8Q329,220.72,329,201.11V190.82q0-14.53,4.59-19.81t22.75-12.3q19.43-7.61,20.79-10.25t1.37-10.73q0-10.15-1.52-13.23a5.18,5.18,0,0,0-5-3.07q-4,0-5,2.58t-1,13.42Zm13,17.62q-9.47,6.93-11,11.61t-1.51,13.47q0,10.05,1.31,13t5.23,2.93q3.7,0,4.83-2.29T379,195.26Z" transform="translate(-44 -64)"/><path class="cls-2" d="M529,141H488V113.39q0-12-1.32-15c-.89-2-2.83-3-5.84-3-3.4,0-5.55,1.21-6.47,3.63s-1.37,7.65-1.37,15.7v73.78q0,11.58,1.37,15.11t6.18,3.53q4.6,0,6-3.54T488,187V167h41v6.19q0,24.66-3.46,35t-15.31,18.08Q498.4,234,481,234q-18,0-29.74-6.57t-15.5-18.2q-3.8-11.62-3.8-35V127.85q0-17.16,1.17-25.75a36.16,36.16,0,0,1,7-16.53,38.89,38.89,0,0,1,16.09-12.51,57.77,57.77,0,0,1,23.64-4.56q18.12,0,29.92,7T525.3,93.14q3.69,10.53,3.7,32.77Z" transform="translate(-44 -64)"/><path class="cls-2" d="M631,120H593V108.2q0-8.26-1.46-10.53c-1-1.51-2.6-2.26-4.88-2.26a6.21,6.21,0,0,0-5.61,3c-1.26,2-1.9,5.12-1.9,9.25q0,8,2.14,12t11.6,9.74q27.42,16.41,34.53,26.93t7.12,33.94q0,17-3.95,25.08t-15.26,13.52Q604,234.39,589,234.39q-16.49,0-28.13-6.29t-15.26-16Q542,202.33,542,184.43V174h38v19.38q0,8.94,1.61,11.5t5.7,2.56a6.69,6.69,0,0,0,6.1-3.24q2-3.25,2-9.64,0-14.07-3.81-18.4T572.39,161.7q-15.3-10.22-20.28-14.85a34.85,34.85,0,0,1-8.24-12.78q-3.27-8.17-3.27-20.86,0-18.28,4.64-26.75t15-13.23q10.34-4.77,25-4.77,16,0,27.25,5.21T627.34,86.8Q631,94.72,631,113.71Z" transform="translate(-44 -64)"/><path class="cls-2" d="M744.7,72,723.79,230H661.38L637.65,72H681q7.54,65.28,10.78,110.47,3.18-45.66,6.76-81.09L701.37,72Z" transform="translate(-44 -64)"/></g><g id="Layer_3" data-name="Layer 3"><g class="cls-3"><rect class="cls-4" width="121" height="35"/><rect class="cls-4" y="46" width="121" height="35"/><rect class="cls-4" y="94" width="121" height="35"/><rect class="cls-4" y="140" width="121" height="35"/></g></g></svg>